<svg xmlns="http://www.w3.org/2000/svg" width="19.459" height="20" viewBox="0 0 19.459 20">
    <path id="ic_settings_48px" fill="#727272" d="M21.7 14.975a7.85 7.85 0 0 0 .07-.975 7.85 7.85 0 0 0-.07-.975l2.115-1.655a.5.5 0 0 0 .12-.64l-2-3.465a.5.5 0 0 0-.61-.215l-2.49 1a7.588 7.588 0 0 0-1.69-.985l-.375-2.65a.514.514 0 0 0-.5-.42h-4a.5.5 0 0 0-.495.42L11.4 7.07a7.4 7.4 0 0 0-1.69.985l-2.49-1a.5.5 0 0 0-.61.215l-2 3.465a.5.5 0 0 0 .12.64l2.11 1.655a7.85 7.85 0 0 0-.07.975 7.85 7.85 0 0 0 .07.975l-2.107 1.65a.5.5 0 0 0-.12.64l2 3.465a.5.5 0 0 0 .61.215l2.49-1a7.588 7.588 0 0 0 1.69.985l.375 2.65a.5.5 0 0 0 .495.42h4a.5.5 0 0 0 .495-.42l.375-2.65a7.4 7.4 0 0 0 1.69-.985l2.49 1a.5.5 0 0 0 .61-.215l2-3.465a.5.5 0 0 0-.12-.64zM14.273 17.5a3.5 3.5 0 1 1 3.5-3.5 3.5 3.5 0 0 1-3.5 3.5z" transform="translate(-4.546 -4)"/>
</svg>
