<svg xmlns="http://www.w3.org/2000/svg" width="20" height="20" viewBox="0 0 20 20">
    <path fill="none" d="M0 0h20v20H0z"/>
    <path d="M16.5 5.091V14.5c0 1.808-1.79 3.273-4 3.273s-4-1.465-4-3.273V4.273A2.308 2.308 0 0 1 11 2.227a2.308 2.308 0 0 1 2.5 2.045v8.591a.926.926 0 0 1-1 .818.926.926 0 0 1-1-.818V5.091H10v7.773a2.308 2.308 0 0 0 2.5 2.045 2.308 2.308 0 0 0 2.5-2.045V4.273C15 2.465 13.21 1 11 1S7 2.465 7 4.273V14.5c0 2.487 2.46 4.5 5.5 4.5s5.5-2.013 5.5-4.5V5.091z" transform="translate(-2.154)"/>
</svg>
