<svg xmlns="http://www.w3.org/2000/svg" xmlns:xlink="http://www.w3.org/1999/xlink" width="20" height="20" viewBox="0 0 20 20">
  <defs>
    <clipPath id="clip-path">
      <rect width="20" height="20" fill="none"/>
    </clipPath>
  </defs>
  <g id="Icon_Cancel_Filled" data-name="Icon / Cancel / Filled" opacity="0.55" clip-path="url(#clip-path)">
    <rect id="Box" width="20" height="20" fill="none"/>
    <path id="Icon_Cancel_Dark" data-name="Icon / Cancel / Dark" d="M152.889-12.241l-1.13,1.13-2.87-2.87-2.87,2.87-1.13-1.13,2.87-2.87-2.87-2.87,1.13-1.13,2.87,2.87,2.87-2.87,1.13,1.13-2.87,2.87Zm-4-10.87a8,8,0,0,0-8,8,8,8,0,0,0,8,8,8,8,0,0,0,8-8,8,8,0,0,0-8-8Z" transform="translate(-138.889 25.111)" fill-rule="evenodd"/>
  </g>
</svg>
