<svg xmlns="http://www.w3.org/2000/svg" width="20" height="20" viewBox="0 0 20 20">
  <g id="content_copy-24px" transform="translate(2 1)">
    <path id="패스_2019" data-name="패스 2019" d="M0,0H16V18H0Z" fill="none"/>
    <path id="패스_2020" data-name="패스 2020" d="M11.026,1H3.289A1.411,1.411,0,0,0,2,2.5V13H3.289V2.5h7.737Zm1.934,3H5.868A1.411,1.411,0,0,0,4.579,5.5V16a1.411,1.411,0,0,0,1.289,1.5h7.092A1.411,1.411,0,0,0,14.25,16V5.5A1.411,1.411,0,0,0,12.961,4Zm0,12H5.868V5.5h7.092Z"/>
    <rect id="사각형_632" data-name="사각형 632" width="20" height="20" transform="translate(-2 -1)" fill="none"/>
  </g>
</svg>
