<svg xmlns="http://www.w3.org/2000/svg" width="20" height="22.222" viewBox="0 0 20 22.222">
    <path id="ic_perm_contact_calendar_48px" fill="#7f7f7f" d="M23.778 4.222h-1.111V2h-2.223v2.222h-8.888V2H9.333v2.222H8.222A2.222 2.222 0 0 0 6 6.444V22a2.222 2.222 0 0 0 2.222 2.222h15.556A2.222 2.222 0 0 0 26 22V6.444a2.222 2.222 0 0 0-2.222-2.222zM16 7.556a3.333 3.333 0 1 1-3.333 3.333A3.336 3.336 0 0 1 16 7.556zm6.667 13.333H9.333v-1.111c0-2.222 4.444-3.444 6.667-3.444s6.667 1.222 6.667 3.444z" transform="translate(-6 -2)"/>
</svg>
