<svg xmlns="http://www.w3.org/2000/svg" width="118" height="38.5" viewBox="0 0 118 38.5">
  <g id="그룹_747" data-name="그룹 747" transform="translate(7112 -139)">
    <g id="그룹_744" data-name="그룹 744">
      <g id="그룹_742" data-name="그룹 742" transform="translate(-7134 117)">
        <text id="Device_Easy_Line-up" data-name="Device Easy Line-up" transform="translate(51.5 57.5)" fill="#2a2562" font-size="10" font-family="SegoeUI, Segoe UI"><tspan x="0" y="0">Device Easy Line-up</tspan></text>
      </g>
      <g id="그룹_743" data-name="그룹 743" transform="translate(104 -105)">
        <g id="그룹_740" data-name="그룹 740" transform="translate(-7216 244)">
          <g id="그룹_738" data-name="그룹 738" transform="translate(0 0)">
            <path id="패스_2028" data-name="패스 2028" d="M255.54,115.412v-6.266c0-1.67.466-3.116,1.69-3.563l5.222-1.859a4.68,4.68,0,0,0,.355-1.9,6.394,6.394,0,0,0-4.206-6.261l-14.3-4.471,3.729-1.336a2.134,2.134,0,0,1,.671-.11,2.517,2.517,0,0,1,.7.107l14.591,4.561c2.54.846,3.486,3.881,3.486,5.522,0,1.333-.453,2.87-1.87,3.384-1.258.46-5.037,1.812-5.037,1.812a5.473,5.473,0,0,0-.368,2.288v5.646c0,1.778-.856,3.39-2.5,3.39a3.234,3.234,0,0,1-2.161-.946" transform="translate(-241.004 -89.647)" fill="#f15f15"/>
            <path id="패스_2029" data-name="패스 2029" d="M239.983,108.457a7.175,7.175,0,0,1,1.132,3.794v5.257c0,3.253,1.5,5.906,3.983,6.663l-3.826,1.321a2.308,2.308,0,0,1-1.97-.3c-1.863-1.193-2.846-3.043-2.846-5.886,0-1.335-.007-3.162-.007-5.517a7.134,7.134,0,0,0-1.454-4.068,4.992,4.992,0,0,0-2.4-1.767c-1.883-.673-3.4-3.116-3.4-5.517,0-2.064,1.05-3.363,2.445-3.463a2.129,2.129,0,0,1,.8.108c.828.252,1.5.484,1.5.484-.462,2.386.93,6.049,3.737,7.039a4.309,4.309,0,0,1,2.318,1.853" transform="translate(-229.188 -96.936)" fill="#d80029"/>
          </g>
          <g id="그룹_739" data-name="그룹 739" transform="translate(29.839 6.411)">
            <path id="패스_2030" data-name="패스 2030" d="M365.944,142.131h2.287l2.247,6.68q.1.3.891,2.773h.02q.465-1.559.87-2.773l2.166-6.68h2.044l-3.583,10.162a1.551,1.551,0,0,1-1.579,1.134,1.641,1.641,0,0,1-1.64-1.215Z" transform="translate(-365.944 -137.09)" fill="#10184c"/>
            <path id="패스_2031" data-name="패스 2031" d="M420.865,120.2a1.112,1.112,0,0,1,.344-.85,1.168,1.168,0,0,1,.83-.324,1.2,1.2,0,0,1,.84,2.024,1.252,1.252,0,0,1-1.68,0A1.131,1.131,0,0,1,420.865,120.2Zm.162,3.866h2.024v10.081a3.6,3.6,0,0,1-.02.385.874.874,0,0,1-.992.83.888.888,0,0,1-.992-.83,3.106,3.106,0,0,1-.02-.385Z" transform="translate(-408.882 -119.03)" fill="#10184c"/>
            <path id="패스_2032" data-name="패스 2032" d="M453.222,147.076H447.19a2.588,2.588,0,0,1-.385-.02.712.712,0,0,1-.668-.789.692.692,0,0,1,.668-.749,1.329,1.329,0,0,1,.385-.04h4.028q-.041-3.219-2.713-3.219a2.811,2.811,0,0,0-2.47,1.235,5.438,5.438,0,0,0-.749,3.037,4.463,4.463,0,0,0,1.113,3.32,3.434,3.434,0,0,0,2.51.931,6.3,6.3,0,0,0,2.733-.567,1.275,1.275,0,0,1,.547-.182q.648,0,.648.688a.792.792,0,0,1-.4.688,5.479,5.479,0,0,1-1.8.749,7.766,7.766,0,0,1-1.842.243,5.634,5.634,0,0,1-3.887-1.3,5.764,5.764,0,0,1-1.68-4.535,5.882,5.882,0,0,1,1.559-4.352,4.965,4.965,0,0,1,3.725-1.478q4.716,0,4.717,5.587Z" transform="translate(-426.36 -136.003)" fill="#10184c"/>
            <path id="패스_2033" data-name="패스 2033" d="M493.969,142.131h2.267l1.741,6.7q.262.972.729,2.773h.041q.283-1.113.688-2.773l1.781-6.7h2.449l1.761,6.7.688,2.773h.041q.061-.263.749-2.773l1.8-6.7h2l-3.057,10.1a1.513,1.513,0,0,1-1.559,1.215,1.613,1.613,0,0,1-1.64-1.356l-1.275-4.413a36.749,36.749,0,0,1-.83-3.583h-.041a31.219,31.219,0,0,1-.83,3.583l-1.255,4.555a1.506,1.506,0,0,1-1.579,1.215,1.556,1.556,0,0,1-1.619-1.255Z" transform="translate(-466.035 -137.09)" fill="#10184c"/>
          </g>
        </g>
      </g>
    </g>
    <g id="그룹_746" data-name="그룹 746" transform="translate(-7141 115.125)">
      <rect id="사각형_610" data-name="사각형 610" width="40" height="11" rx="5.5" transform="translate(107 35.875)" fill="#241f5e"/>
      <text id="Admin" transform="translate(115.258 44)" fill="#fff" font-size="8" font-family="SegoeUI, Segoe UI"><tspan x="0" y="0">Admin</tspan></text>
    </g>
  </g>
</svg>
